# xmcd
#
# Track frame offsets:
#	150
#	14580
#	29130
#	47955
#	61080
#	73635
#	89355
#	106328
#	124201
#
# Disc length: 1932 seconds
#
# Revision: 1
# Processed by: cddbd v1.5.2PL0 Copyright (c) Steve Scherf et al.
# Submitted via: audiograbber 1.83.01
#
DISCID=7f078a09
DTITLE=Alabama - American Pride
DYEAR=1992
DGENRE=Country
TTITLE0=Take A Little Trip
TTITLE1=Hometowm Honeymoon
TTITLE2=Once Upon A Life Time
TTITLE3=You Can't Take The Country Out Of Me
TTITLE4=I'm In A Hurry (And I Don't Know Why)
TTITLE5=Ricahard Petty Fans
TTITLE6=Homesick Fever
TTITLE7=Between The Two Of Them
TTITLE8=American Pride
EXTD=
EXTT0=
EXTT1=
EXTT2=
EXTT3=
EXTT4=
EXTT5=
EXTT6=
EXTT7=
EXTT8=
PLAYORDER=
